HIERARCHY
ROOT Hips
{
	OFFSET 0.000000 0.000000 0.000000
	CHANNELS 6 Xposition Yposition Zposition Xrotation Yrotation Zrotation
	JOINT LeftUpLeg_virtual
	{
		OFFSET 0.000000 0.000000 0.000000
		CHANNELS 3 Xrotation Yrotation Zrotation
		JOINT LeftUpLeg
		{
			OFFSET 10.205400 -3.823500 0.155100
			CHANNELS 3 Xrotation Yrotation Zrotation
			JOINT LeftLeg
			{
				OFFSET 0.708757 -12.982077 0.567790
				CHANNELS 3 Xrotation Yrotation Zrotation
				JOINT LeftFoot
				{
					OFFSET -0.708756 -10.717838 -2.184338
					CHANNELS 3 Xrotation Yrotation Zrotation
					JOINT LeftToeBase
					{
						OFFSET 0.108149 -7.191104 7.560241
						CHANNELS 3 Xrotation Yrotation Zrotation
						JOINT LeftToe_End
						{
							OFFSET 0.070230 0.081724 4.490308
							CHANNELS 3 Xrotation Yrotation Zrotation
							End Site
							{
								OFFSET 0 0 0
							}
						}
					}
				}
			}
		}
	}
	JOINT RightUpLeg_virtual
	{
		OFFSET 0.000000 0.000000 0.000000
		CHANNELS 3 Xrotation Yrotation Zrotation
		JOINT RightUpLeg
		{
			OFFSET -10.205400 -3.823500 0.005500
			CHANNELS 3 Xrotation Yrotation Zrotation
			JOINT RightLeg
			{
				OFFSET -0.708756 -12.982134 0.610632
				CHANNELS 3 Xrotation Yrotation Zrotation
				JOINT RightFoot
				{
					OFFSET 0.708754 -10.717769 -1.945823
					CHANNELS 3 Xrotation Yrotation Zrotation
					JOINT RightToeBase
					{
						OFFSET -0.108140 -7.191069 7.372968
						CHANNELS 3 Xrotation Yrotation Zrotation
						JOINT RightToe_End
						{
							OFFSET -0.070227 0.081735 4.479403
							CHANNELS 3 Xrotation Yrotation Zrotation
							End Site
							{
								OFFSET 0 0 0
							}
						}
					}
				}
			}
		}
	}
	JOINT Spine_virtual
	{
		OFFSET 0.000000 0.000000 0.000000
		CHANNELS 3 Xrotation Yrotation Zrotation
		JOINT Spine
		{
			OFFSET 0.000000 6.876099 0.125700
			CHANNELS 3 Xrotation Yrotation Zrotation
			JOINT Spine1
			{
				OFFSET 0.000000 5.730043 0.104720
				CHANNELS 3 Xrotation Yrotation Zrotation
				JOINT Spine1_split
				{
					OFFSET 0.000000 5.730043 0.104720
					CHANNELS 3 Xrotation Yrotation Zrotation
					JOINT Spine2
					{
						OFFSET 0.000000 5.730043 0.104720
						CHANNELS 3 Xrotation Yrotation Zrotation
						JOINT Neck_virtual
						{
							OFFSET 0.000000 0.000000 0.000000
							CHANNELS 3 Xrotation Yrotation Zrotation
							JOINT Neck
							{
								OFFSET 0.000000 10.314075 0.188496
								CHANNELS 3 Xrotation Yrotation Zrotation
								JOINT Head
								{
									OFFSET 0.000000 7.643700 -2.377400
									CHANNELS 3 Xrotation Yrotation Zrotation
									JOINT HeadTop_End
									{
										OFFSET 0.000000 43.788605 -13.619600
										CHANNELS 3 Xrotation Yrotation Zrotation
										End Site
										{
											OFFSET 0 0 0
										}
									}
								}
							}
						}
						JOINT LeftShoulder_virtual
						{
							OFFSET 0.000000 0.000000 0.000000
							CHANNELS 3 Xrotation Yrotation Zrotation
							JOINT LeftShoulder
							{
								OFFSET 2.196100 4.412489 0.087492
								CHANNELS 3 Xrotation Yrotation Zrotation
								JOINT LeftShoulder_split
								{
									OFFSET 2.196100 4.412489 0.087492
									CHANNELS 3 Xrotation Yrotation Zrotation
									JOINT LeftArm
									{
										OFFSET 8.771219 -2.981674 -0.026999
										CHANNELS 3 Xrotation Yrotation Zrotation
										JOINT LeftForeArm
										{
											OFFSET 8.512804 0.000000 -0.000000
											CHANNELS 3 Xrotation Yrotation Zrotation
											JOINT LeftHand
											{
												OFFSET 18.484802 0.000000 -0.000000
												CHANNELS 3 Xrotation Yrotation Zrotation
												End Site
												{
													OFFSET 0 0 0
												}
											}
										}
									}
								}
							}
						}
						JOINT RightShoulder_virtual
						{
							OFFSET 0.000000 0.000000 0.000000
							CHANNELS 3 Xrotation Yrotation Zrotation
							JOINT RightShoulder
							{
								OFFSET -2.196100 4.412496 0.070690
								CHANNELS 3 Xrotation Yrotation Zrotation
								JOINT RightShoulder_split
								{
									OFFSET -2.196100 4.412496 0.070690
									CHANNELS 3 Xrotation Yrotation Zrotation
									JOINT RightArm
									{
										OFFSET -8.771282 -2.981682 -0.094208
										CHANNELS 3 Xrotation Yrotation Zrotation
										JOINT RightForeArm
										{
											OFFSET -8.494598 0.000000 0.000000
											CHANNELS 3 Xrotation Yrotation Zrotation
											JOINT RightHand
											{
												OFFSET -18.483803 0.000000 0.000001
												CHANNELS 3 Xrotation Yrotation Zrotation
												End Site
												{
													OFFSET 0 0 0
												}
											}
										}
									}
								}
							}
						}
					}
				}
			}
		}
	}
}
MOTION
Frames: 4
Frame Time: 0.03333333
1.330454 34.245499 -5.596308 0.000000 0.000000 0.000000 0.107375 13.732886 7.361718 -4.823690 15.331333 2.347088 10.445255 -1.934529 0.041881 -5.230077 9.024241 -14.833986 4.421482 -2.568368 -1.319710 0.000000 0.000000 0.000000 0.528854 14.732610 7.259013 0.675324 -8.092768 -7.753244 17.265053 5.051530 -2.065686 -25.707992 -17.772960 17.146075 7.129804 5.272574 -15.149341 0.000000 0.000000 0.000000 -1.511636 18.964664 7.150418 4.627702 -3.658363 3.868337 4.533385 -0.889414 2.577468 0.103656 -0.024875 -0.061748 0.000000 0.000000 0.000000 4.554159 1.221558 2.052106 -1.371500 7.319704 1.548272 -8.371394 -3.848714 -15.266642 0.000000 0.000000 0.000000 3.544485 -0.045770 1.127988 2.167672 -2.627656 -13.109424 1.721014 -3.482617 -0.880851 -2.223410 -3.509963 -35.360818 28.136165 -61.885400 20.044872 0.000000 0.000000 0.000000 5.877556 0.830562 1.769444 -2.965953 16.001267 15.398737 2.120726 1.761571 4.376544 -20.581916 17.905720 57.536551 -95.727710 81.583311 98.221419 0.000000 0.000000 0.000000 
1.316286 34.231979 -5.545025 0.000000 0.000000 0.000000 0.050679 13.431686 7.381522 -4.549803 15.643558 2.327531 10.380659 -2.046879 -0.025719 -5.577726 9.148903 -14.585273 4.723491 -2.629771 -1.306435 0.000000 0.000000 0.000000 0.486741 14.442969 7.279431 0.848454 -7.673702 -7.813699 17.308609 4.825689 -1.964924 -25.877825 -17.842042 17.359631 7.050048 5.376181 -15.018876 0.000000 0.000000 0.000000 -1.565079 18.949813 7.126387 4.500022 -3.897542 3.743378 4.587165 -0.990219 2.656230 0.103171 -0.047066 -0.071075 0.000000 0.000000 0.000000 4.622739 1.099734 2.156773 -1.308190 7.178245 1.092300 -8.356496 -3.784579 -15.187487 0.000000 0.000000 0.000000 3.498049 -0.132353 1.223692 2.038086 -2.795905 -13.004221 1.810606 -3.108760 -1.007578 -1.871923 -3.584885 -35.291273 28.471493 -61.453486 20.161603 0.000000 0.000000 0.000000 5.895708 0.724094 1.882451 -3.021625 16.838349 15.724028 1.897119 1.957975 4.626440 -14.522521 20.360493 57.402392 -121.219780 80.823582 123.540405 0.000000 0.000000 0.000000 
1.314326 34.223049 -5.504896 0.000000 0.000000 0.000000 -0.011182 13.190271 7.386651 -4.259228 15.916793 2.291527 10.297685 -2.103406 -0.106008 -5.984695 9.256607 -14.342764 5.008390 -2.693203 -1.297930 0.000000 0.000000 0.000000 0.445509 14.221935 7.280411 1.054922 -7.206908 -7.875293 17.287292 4.593310 -1.867358 -25.987994 -17.902226 17.528869 6.995858 5.486941 -14.930643 0.000000 0.000000 0.000000 -1.631952 18.888907 7.085446 4.371758 -4.154013 3.584354 4.617893 -1.117493 2.690345 0.108699 -0.062437 -0.074869 0.000000 0.000000 0.000000 4.684011 0.954610 2.211372 -1.280725 7.016662 0.781641 -8.171334 -3.718145 -15.004150 0.000000 0.000000 0.000000 3.447823 -0.239669 1.278874 1.921301 -2.874210 -12.791089 1.865567 -2.716479 -1.088144 -1.364423 -4.006014 -35.306067 28.598856 -60.915370 20.159138 0.000000 0.000000 0.000000 5.902352 0.587866 1.948312 -3.020155 17.756369 15.849316 1.648944 2.031255 5.010492 -8.574438 23.914697 56.417366 -136.568799 79.339860 138.644016 0.000000 0.000000 0.000000 
1.327043 34.219700 -5.476007 0.000000 0.000000 0.000000 -0.083110 12.997321 7.373593 -3.960025 16.145584 2.253091 10.216373 -2.117173 -0.195543 -6.375368 9.330160 -14.120685 5.190534 -2.759784 -1.282604 0.000000 0.000000 0.000000 0.389481 14.022949 7.257667 1.270998 -6.711755 -7.928979 17.226041 4.353528 -1.774525 -26.023929 -17.955587 17.641436 7.000383 5.599114 -14.887926 0.000000 0.000000 0.000000 -1.729656 18.742601 7.032302 4.251807 -4.413191 3.383100 4.627536 -1.263860 2.664593 0.112013 -0.069467 -0.066821 0.000000 0.000000 0.000000 4.730987 0.794483 2.192711 -1.303953 6.844952 0.631871 -7.805253 -3.648282 -14.674894 0.000000 0.000000 0.000000 3.400692 -0.366095 1.279085 1.820703 -2.830363 -12.451279 1.885542 -2.280695 -1.119269 -0.761608 -4.732761 -35.409200 28.581640 -60.352303 20.105611 0.000000 0.000000 0.000000 5.882426 0.419973 1.948633 -2.964764 18.776123 15.816018 1.436535 2.007974 5.325182 -2.668465 28.456996 54.209866 -144.929634 78.081008 146.745494 0.000000 0.000000 0.000000 
